<?xml version="1.0" encoding="UTF-8" standalone="no"?>
<!-- Created with Inkscape (http://www.inkscape.org/) -->

<svg
   xmlns:dc="http://purl.org/dc/elements/1.1/"
   xmlns:cc="http://creativecommons.org/ns#"
   xmlns:rdf="http://www.w3.org/1999/02/22-rdf-syntax-ns#"
   xmlns:svg="http://www.w3.org/2000/svg"
   xmlns="http://www.w3.org/2000/svg"
   xmlns:xlink="http://www.w3.org/1999/xlink"
   xmlns:sodipodi="http://sodipodi.sourceforge.net/DTD/sodipodi-0.dtd"
   xmlns:inkscape="http://www.inkscape.org/namespaces/inkscape"
   width="765"
   height="990"
   id="svg2"
   version="1.1"
   inkscape:version="0.47pre4 r22446"
   sodipodi:docname="mbt.svg">
  <defs
     id="defs4">
    <linearGradient
       id="linearGradient3600">
      <stop
         style="stop-color:#990000;stop-opacity:1;"
         offset="0"
         id="stop3602" />
      <stop
         style="stop-color:#c29f9f;stop-opacity:1;"
         offset="1"
         id="stop3604" />
    </linearGradient>
    <inkscape:perspective
       sodipodi:type="inkscape:persp3d"
       inkscape:vp_x="0 : 526.18109 : 1"
       inkscape:vp_y="0 : 1000 : 0"
       inkscape:vp_z="744.09448 : 526.18109 : 1"
       inkscape:persp3d-origin="372.04724 : 350.78739 : 1"
       id="perspective10" />
    <linearGradient
       inkscape:collect="always"
       xlink:href="#linearGradient3600"
       id="linearGradient3606"
       x1="82.882576"
       y1="163.88258"
       x2="302.46851"
       y2="122.05836"
       gradientUnits="userSpaceOnUse"
       gradientTransform="translate(-8.102041,30.306122)" />
    <filter
       y="0"
       x="0"
       filterUnits="userSpaceOnUse"
       id="ShadowBlur">
      <feGaussianBlur
         id="feGaussianBlur6"
         stdDeviation="2"
         in="SourceGraphic" />
    </filter>
    <clipPath
       id="clipoutline2"
       clipPathUnits="userSpaceOnUse">
      <path
         d="M 55.8,12 L 56.56,12.16 C 65.4,9.22 85.24,20.8 80.82,31.12 C 79.7,32.74 79.89,35.62 81.24,37.43 L 56.43,62.25 C 55.04,60.86 51.95,60.89 50.53,62.25 L 9.5,101.63 C 5.76,105.22 8.7,108.27 10.28,109.88 L 17.64,117.24 C 19.25,118.84 23.5,121 26.52,117.8 L 65.24,76.99 C 66.59,75.57 66.6,72.52 65.24,71.12 C 65.24,71.12 65.25,71.1 65.24,71.1 L 90.15,46.2 C 92.78,48.57 95.263827,48.774854 97.62,48.13 C 102.17057,46.884568 104.70725,51.336643 107.43,54.59 L 106.2,55.8 C 104.38,57.64 104.55,60.74 106.59,62.78 C 108.63,64.82 111.74,64.99 113.56,63.17 L 121.7,55.04 C 123.52,53.2 123.35,50.1 121.3,48.07 C 119.46,46.22 116.79,45.98 114.93,47.3 C 109.35,41.04 112.28,40.1 104.92,31.95 L 91.13,17.86 C 81.2,8.12 68.3,8.13 55.8,12 z"
         id="outline2" />
    </clipPath>
    <clipPath
       id="clipoutline1"
       clipPathUnits="userSpaceOnUse">
      <path
         d="M 22.42,17.2 L 35.38,30.15 L 32.88,38.93 L 24.1,41.43 L 11.14,28.47 L 5.28,34.33 L 20.17,55.79 L 37.73,52.45 L 99.36,118.07 C 108.8,127.58 121.53,113.32 112.7,105.2 L 46.85,42.92 L 50.86,25.16 L 28.72,10.89 L 22.42,17.2 z M 103.48,109.17 C 105.16,107.49 107.88,107.49 109.56,109.17 C 111.24,110.85 111.24,113.57 109.56,115.25 C 107.88,116.92 105.16,116.92 103.48,115.25 C 101.8,113.57 101.8,110.85 103.48,109.17 z"
         id="outline1" />
    </clipPath>
    <linearGradient
       gradientUnits="userSpaceOnUse"
       gradientTransform="translate(-0.30267,-3.20138)"
       y2="86.68"
       x2="84.3"
       y1="66.2"
       x1="73.88"
       id="lgdg"
       xlink:href="#BlackTransparent" />
    <linearGradient
       gradientTransform="matrix(0.26,0,0,0.26,-106.57,101.57)"
       gradientUnits="userSpaceOnUse"
       y2="-241.2"
       x2="655.42"
       y1="-137.5"
       x1="550.96"
       id="lg55"
       xlink:href="#WhiteTransparent" />
    <linearGradient
       gradientTransform="matrix(0.2,0,0,0.2,-80.94,88.3)"
       gradientUnits="userSpaceOnUse"
       y2="-186.26"
       x2="607.66"
       y1="-252.6"
       x1="646.24"
       id="lg51"
       xlink:href="#WhiteTransparent" />
    <linearGradient
       y2="6037.5261"
       x2="2375.4978"
       y1="6145.3078"
       x1="2482.957"
       id="lg19"
       xlink:href="#BlackTransparent"
       gradientUnits="userSpaceOnUse" />
    <linearGradient
       spreadMethod="pad"
       gradientTransform="matrix(0.0775,0.0775,-0.36,0.36,78.84,-44.8)"
       gradientUnits="userSpaceOnUse"
       y2="124"
       x2="626.1"
       y1="124"
       x1="577.03"
       id="lg16"
       xlink:href="#WhiteTransparent" />
    <linearGradient
       gradientTransform="matrix(0.3,0.3,-0.09,0.09,78.84,-44.8)"
       gradientUnits="userSpaceOnUse"
       y2="368.27"
       x2="146.15"
       y1="288.57"
       x1="146.15"
       id="lg12"
       xlink:href="#WhiteTransparent" />
    <linearGradient
       gradientTransform="matrix(0.33,0.33,-0.0944,0.0944,9.03,-48.1)"
       gradientUnits="userSpaceOnUse"
       y2="-1.72"
       x2="258.96"
       y1="62.74"
       x1="258.96"
       id="lg09"
       xlink:href="#WhiteTransparent" />
    <linearGradient
       spreadMethod="pad"
       gradientTransform="matrix(0.0998,0.0998,-0.28,0.28,78.84,-44.8)"
       gradientUnits="userSpaceOnUse"
       y2="286.56"
       x2="419.88"
       y1="286.56"
       x1="543.1"
       id="lg05"
       xlink:href="#BlackTransparent" />
    <linearGradient
       gradientTransform="matrix(0.0807,0.0775,-0.35,0.36,77.14,-45.89)"
       gradientUnits="userSpaceOnUse"
       y2="254.83"
       x2="615.59"
       y1="254.36"
       x1="512.7"
       id="lg02"
       xlink:href="#WhiteTransparent" />
    <linearGradient
       gradientTransform="matrix(0.1,0.1,-0.22,0.2,75.6,-33.53)"
       gradientUnits="userSpaceOnUse"
       y2="118.3"
       x2="638.3"
       y1="69.99"
       x1="637.03"
       id="lg1999"
       xlink:href="#WhiteTransparent" />
    <linearGradient
       id="BlackTransparent">
      <stop
         id="stop2959"
         offset="0"
         style="stop-color: black; stop-opacity: 1;" />
      <stop
         id="stop2961"
         offset="1"
         style="stop-color: black; stop-opacity: 0;" />
    </linearGradient>
    <linearGradient
       id="WhiteTransparent">
      <stop
         id="stop2954"
         offset="0"
         style="stop-color: white; stop-opacity: 1;" />
      <stop
         id="stop2956"
         offset="1"
         style="stop-color: white; stop-opacity: 0;" />
    </linearGradient>
    <inkscape:perspective
       id="perspective3028"
       inkscape:persp3d-origin="64 : 42.666667 : 1"
       inkscape:vp_z="128 : 64 : 1"
       inkscape:vp_y="0 : 1000 : 0"
       inkscape:vp_x="0 : 64 : 1"
       sodipodi:type="inkscape:persp3d" />
    <linearGradient
       inkscape:collect="always"
       xlink:href="#BlackTransparent"
       id="linearGradient3092"
       gradientUnits="userSpaceOnUse"
       gradientTransform="translate(453.65906,117.85587)"
       x1="73.88"
       y1="66.2"
       x2="84.3"
       y2="86.68" />
    <linearGradient
       inkscape:collect="always"
       xlink:href="#BlackTransparent"
       id="linearGradient3101"
       gradientUnits="userSpaceOnUse"
       x1="2482.957"
       y1="6145.3078"
       x2="2375.4978"
       y2="6037.5261" />
    <linearGradient
       inkscape:collect="always"
       xlink:href="#WhiteTransparent"
       id="linearGradient3103"
       gradientUnits="userSpaceOnUse"
       gradientTransform="matrix(0.0775,0.0775,-0.36,0.36,78.84,-44.8)"
       spreadMethod="pad"
       x1="577.03"
       y1="124"
       x2="626.1"
       y2="124" />
    <linearGradient
       inkscape:collect="always"
       xlink:href="#WhiteTransparent"
       id="linearGradient3105"
       gradientUnits="userSpaceOnUse"
       gradientTransform="matrix(0.3,0.3,-0.09,0.09,78.84,-44.8)"
       x1="146.15"
       y1="288.57"
       x2="146.15"
       y2="368.27" />
    <linearGradient
       inkscape:collect="always"
       xlink:href="#WhiteTransparent"
       id="linearGradient3107"
       gradientUnits="userSpaceOnUse"
       gradientTransform="matrix(0.33,0.33,-0.0944,0.0944,9.03,-48.1)"
       x1="258.96"
       y1="62.74"
       x2="258.96"
       y2="-1.72" />
    <linearGradient
       inkscape:collect="always"
       xlink:href="#BlackTransparent"
       id="linearGradient3109"
       gradientUnits="userSpaceOnUse"
       gradientTransform="matrix(0.0998,0.0998,-0.28,0.28,78.84,-44.8)"
       spreadMethod="pad"
       x1="543.1"
       y1="286.56"
       x2="419.88"
       y2="286.56" />
    <linearGradient
       inkscape:collect="always"
       xlink:href="#WhiteTransparent"
       id="linearGradient3111"
       gradientUnits="userSpaceOnUse"
       gradientTransform="matrix(0.0807,0.0775,-0.35,0.36,77.14,-45.89)"
       x1="512.7"
       y1="254.36"
       x2="615.59"
       y2="254.83" />
    <linearGradient
       inkscape:collect="always"
       xlink:href="#WhiteTransparent"
       id="linearGradient3113"
       gradientUnits="userSpaceOnUse"
       gradientTransform="matrix(0.1,0.1,-0.22,0.2,75.6,-33.53)"
       x1="637.03"
       y1="69.99"
       x2="638.3"
       y2="118.3" />
    <linearGradient
       inkscape:collect="always"
       xlink:href="#WhiteTransparent"
       id="linearGradient3928"
       gradientUnits="userSpaceOnUse"
       gradientTransform="matrix(0.23714384,-0.10659642,0.10659642,0.23714384,2.7410639,257.5086)"
       x1="550.96"
       y1="-137.5"
       x2="655.42"
       y2="-241.2" />
    <linearGradient
       inkscape:collect="always"
       xlink:href="#WhiteTransparent"
       id="linearGradient3930"
       gradientUnits="userSpaceOnUse"
       gradientTransform="matrix(0.18241834,-0.08199725,0.08199725,0.18241834,20.677457,234.89719)"
       x1="646.24"
       y1="-252.6"
       x2="607.66"
       y2="-186.26" />
    <linearGradient
       y2="88.181526"
       x2="23.418047"
       y1="85.418839"
       x1="-2.5588632"
       gradientTransform="translate(-1.23602,0.271938)"
       gradientUnits="userSpaceOnUse"
       id="linearGradient12751"
       xlink:href="#linearGradient4719"
       inkscape:collect="always" />
    <linearGradient
       y2="88.181526"
       x2="23.418047"
       y1="77.80275"
       x1="23.601509"
       gradientTransform="translate(-1.23602,0.271938)"
       gradientUnits="userSpaceOnUse"
       id="linearGradient12749"
       xlink:href="#linearGradient6497"
       inkscape:collect="always" />
    <linearGradient
       y2="254.83"
       x2="615.59"
       y1="254.36"
       x1="512.7"
       gradientTransform="matrix(0.0807,0.0775,-0.35,0.36,75.1029,-47.9271)"
       gradientUnits="userSpaceOnUse"
       id="linearGradient12747"
       xlink:href="#WhiteTransparent-1"
       inkscape:collect="always" />
    <linearGradient
       y2="286.56"
       x2="419.88"
       y1="286.56"
       x1="543.1"
       spreadMethod="pad"
       gradientTransform="matrix(0.0998,0.0998,-0.28,0.28,76.8029,-46.8371)"
       gradientUnits="userSpaceOnUse"
       id="linearGradient12745"
       xlink:href="#BlackTransparent-2"
       inkscape:collect="always" />
    <linearGradient
       y2="6037.5261"
       x2="2375.4978"
       y1="6145.3078"
       x1="2482.957"
       gradientTransform="translate(-2.03713,-2.03713)"
       gradientUnits="userSpaceOnUse"
       id="linearGradient12743"
       xlink:href="#BlackTransparent-2"
       inkscape:collect="always" />
    <linearGradient
       y2="21.585117"
       x2="106.07078"
       y1="13.902598"
       x1="98.596313"
       gradientUnits="userSpaceOnUse"
       id="linearGradient12741"
       xlink:href="#linearGradient10942"
       inkscape:collect="always" />
    <linearGradient
       y2="21.585117"
       x2="106.07078"
       y1="13.902598"
       x1="98.596313"
       gradientTransform="translate(0.0942869,0.0843047)"
       gradientUnits="userSpaceOnUse"
       id="linearGradient12739"
       xlink:href="#linearGradient10942"
       inkscape:collect="always" />
    <linearGradient
       gradientTransform="translate(0.0942869, 0.0843047)"
       y2="21.585117"
       x2="106.07078"
       y1="13.902598"
       x1="98.596313"
       gradientUnits="userSpaceOnUse"
       id="linearGradient11837"
       xlink:href="#linearGradient10942"
       inkscape:collect="always" />
    <linearGradient
       gradientUnits="userSpaceOnUse"
       y2="21.585117"
       x2="106.07078"
       y1="13.902598"
       x1="98.596313"
       id="linearGradient10948"
       xlink:href="#linearGradient10942"
       inkscape:collect="always" />
    <linearGradient
       gradientTransform="translate(-1.23602, 0.271938)"
       gradientUnits="userSpaceOnUse"
       y2="88.181526"
       x2="23.418047"
       y1="77.80275"
       x1="23.601509"
       id="linearGradient6503"
       xlink:href="#linearGradient6497"
       inkscape:collect="always" />
    <linearGradient
       gradientTransform="translate(-1.23602, 0.271938)"
       gradientUnits="userSpaceOnUse"
       y2="88.181526"
       x2="23.418047"
       y1="85.418839"
       x1="-2.5588632"
       id="linearGradient4725"
       xlink:href="#linearGradient4719"
       inkscape:collect="always" />
    <linearGradient
       gradientTransform="translate(-2.03713, -2.03713)"
       y2="6037.5261"
       x2="2375.4978"
       y1="6145.3078"
       x1="2482.957"
       gradientUnits="userSpaceOnUse"
       id="linearGradient2001"
       xlink:href="#BlackTransparent-2"
       inkscape:collect="always" />
    <linearGradient
       y2="124"
       x2="626.1"
       y1="124"
       x1="577.03"
       spreadMethod="pad"
       gradientTransform="matrix(0.0775, 0.0775, -0.36, 0.36, 76.8029, -46.8371)"
       gradientUnits="userSpaceOnUse"
       id="linearGradient1998"
       xlink:href="#WhiteTransparent-1"
       inkscape:collect="always" />
    <linearGradient
       y2="368.27"
       x2="146.15"
       y1="288.57"
       x1="146.15"
       gradientTransform="matrix(0.3, 0.3, -0.09, 0.09, 76.8029, -46.8371)"
       gradientUnits="userSpaceOnUse"
       id="linearGradient1994"
       xlink:href="#WhiteTransparent-1"
       inkscape:collect="always" />
    <linearGradient
       y2="-1.72"
       x2="258.96"
       y1="62.74"
       x1="258.96"
       gradientTransform="matrix(0.33, 0.33, -0.0944, 0.0944, 6.99287, -50.1371)"
       gradientUnits="userSpaceOnUse"
       id="linearGradient1991"
       xlink:href="#WhiteTransparent-1"
       inkscape:collect="always" />
    <linearGradient
       y2="286.56"
       x2="419.88"
       y1="286.56"
       x1="543.1"
       spreadMethod="pad"
       gradientTransform="matrix(0.0998, 0.0998, -0.28, 0.28, 76.8029, -46.8371)"
       gradientUnits="userSpaceOnUse"
       id="linearGradient1987"
       xlink:href="#BlackTransparent-2"
       inkscape:collect="always" />
    <linearGradient
       y2="254.83"
       x2="615.59"
       y1="254.36"
       x1="512.7"
       gradientTransform="matrix(0.0807, 0.0775, -0.35, 0.36, 75.1029, -47.9271)"
       gradientUnits="userSpaceOnUse"
       id="linearGradient1984"
       xlink:href="#WhiteTransparent-1"
       inkscape:collect="always" />
    <linearGradient
       y2="118.3"
       x2="638.3"
       y1="69.99"
       x1="637.03"
       gradientTransform="matrix(0.1, 0.1, -0.22, 0.2, 73.5629, -35.5671)"
       gradientUnits="userSpaceOnUse"
       id="linearGradient1980"
       xlink:href="#WhiteTransparent-1"
       inkscape:collect="always" />
    <linearGradient
       y2="118.3"
       x2="638.3"
       y1="69.99"
       x1="637.03"
       gradientTransform="matrix(0.1, 0.1, -0.22, 0.2, 75.6, -33.53)"
       gradientUnits="userSpaceOnUse"
       id="linearGradient1977"
       xlink:href="#WhiteTransparent-1"
       inkscape:collect="always" />
    <linearGradient
       y2="254.83"
       x2="615.59"
       y1="254.36"
       x1="512.7"
       gradientTransform="matrix(0.0807, 0.0775, -0.35, 0.36, 77.14, -45.89)"
       gradientUnits="userSpaceOnUse"
       id="linearGradient1975"
       xlink:href="#WhiteTransparent-1"
       inkscape:collect="always" />
    <linearGradient
       y2="286.56"
       x2="419.88"
       y1="286.56"
       x1="543.1"
       spreadMethod="pad"
       gradientTransform="matrix(0.0998, 0.0998, -0.28, 0.28, 78.84, -44.8)"
       gradientUnits="userSpaceOnUse"
       id="linearGradient1973"
       xlink:href="#BlackTransparent-2"
       inkscape:collect="always" />
    <linearGradient
       y2="-1.72"
       x2="258.96"
       y1="62.74"
       x1="258.96"
       gradientTransform="matrix(0.33, 0.33, -0.0944, 0.0944, 9.03, -48.1)"
       gradientUnits="userSpaceOnUse"
       id="linearGradient1971"
       xlink:href="#WhiteTransparent-1"
       inkscape:collect="always" />
    <linearGradient
       y2="368.27"
       x2="146.15"
       y1="288.57"
       x1="146.15"
       gradientTransform="matrix(0.3, 0.3, -0.09, 0.09, 78.84, -44.8)"
       gradientUnits="userSpaceOnUse"
       id="linearGradient1969"
       xlink:href="#WhiteTransparent-1"
       inkscape:collect="always" />
    <linearGradient
       y2="124"
       x2="626.1"
       y1="124"
       x1="577.03"
       spreadMethod="pad"
       gradientTransform="matrix(0.0775, 0.0775, -0.36, 0.36, 78.84, -44.8)"
       gradientUnits="userSpaceOnUse"
       id="linearGradient1967"
       xlink:href="#WhiteTransparent-1"
       inkscape:collect="always" />
    <linearGradient
       y2="6037.5261"
       x2="2375.4978"
       y1="6145.3078"
       x1="2482.957"
       gradientUnits="userSpaceOnUse"
       id="linearGradient1965"
       xlink:href="#BlackTransparent-2"
       inkscape:collect="always" />
    <linearGradient
       y2="86.68"
       x2="84.3"
       y1="66.2"
       x1="73.88"
       gradientTransform="translate(-0.30267, -3.20138)"
       gradientUnits="userSpaceOnUse"
       id="linearGradient1956"
       xlink:href="#BlackTransparent-2"
       inkscape:collect="always" />
    <filter
       y="0"
       x="0"
       filterUnits="userSpaceOnUse"
       id="ShadowBlur-6">
      <feGaussianBlur
         id="feGaussianBlur6-8"
         stdDeviation="2"
         in="SourceGraphic" />
    </filter>
    <clipPath
       id="clipoutline2-6"
       clipPathUnits="userSpaceOnUse">
      <path
         d="M 55.8,12 L 56.56,12.16 C 65.4,9.22 85.24,20.8 80.82,31.12 C 79.7,32.74 79.89,35.62 81.24,37.43 L 56.43,62.25 C 55.04,60.86 51.95,60.89 50.53,62.25 L 9.5,101.63 C 5.76,105.22 8.7,108.27 10.28,109.88 L 17.64,117.24 C 19.25,118.84 23.5,121 26.52,117.8 L 65.24,76.99 C 66.59,75.57 66.6,72.52 65.24,71.12 C 65.24,71.12 65.25,71.1 65.24,71.1 L 90.15,46.2 C 92.78,48.57 95.263827,48.774854 97.62,48.13 C 102.17057,46.884568 104.70725,51.336643 107.43,54.59 L 106.2,55.8 C 104.38,57.64 104.55,60.74 106.59,62.78 C 108.63,64.82 111.74,64.99 113.56,63.17 L 121.7,55.04 C 123.52,53.2 123.35,50.1 121.3,48.07 C 119.46,46.22 116.79,45.98 114.93,47.3 C 109.35,41.04 112.28,40.1 104.92,31.95 L 91.13,17.86 C 81.2,8.12 68.3,8.13 55.8,12 z"
         id="outline2-9" />
    </clipPath>
    <clipPath
       id="clipoutline1-0"
       clipPathUnits="userSpaceOnUse">
      <path
         d="M 22.42,17.2 L 35.38,30.15 L 32.88,38.93 L 24.1,41.43 L 11.14,28.47 L 5.28,34.33 L 20.17,55.79 L 37.73,52.45 L 99.36,118.07 C 108.8,127.58 121.53,113.32 112.7,105.2 L 46.85,42.92 L 50.86,25.16 L 28.72,10.89 L 22.42,17.2 z M 103.48,109.17 C 105.16,107.49 107.88,107.49 109.56,109.17 C 111.24,110.85 111.24,113.57 109.56,115.25 C 107.88,116.92 105.16,116.92 103.48,115.25 C 101.8,113.57 101.8,110.85 103.48,109.17 z"
         id="outline1-4" />
    </clipPath>
    <linearGradient
       gradientUnits="userSpaceOnUse"
       gradientTransform="translate(-0.30267, -3.20138)"
       y2="86.68"
       x2="84.3"
       y1="66.2"
       x1="73.88"
       id="lgdg-6"
       xlink:href="#BlackTransparent-2" />
    <linearGradient
       gradientTransform="matrix(0.26, 0, 0, 0.26, -106.57, 101.57)"
       gradientUnits="userSpaceOnUse"
       y2="-241.2"
       x2="655.42"
       y1="-137.5"
       x1="550.96"
       id="lg55-5"
       xlink:href="#WhiteTransparent-1" />
    <linearGradient
       gradientTransform="matrix(0.2, 0, 0, 0.2, -80.94, 88.3)"
       gradientUnits="userSpaceOnUse"
       y2="-186.26"
       x2="607.66"
       y1="-252.6"
       x1="646.24"
       id="lg51-7"
       xlink:href="#WhiteTransparent-1" />
    <linearGradient
       gradientUnits="userSpaceOnUse"
       y2="6037.5261"
       x2="2375.4978"
       y1="6145.3078"
       x1="2482.957"
       id="lg19-8"
       xlink:href="#BlackTransparent-2" />
    <linearGradient
       spreadMethod="pad"
       gradientTransform="matrix(0.0775, 0.0775, -0.36, 0.36, 78.84, -44.8)"
       gradientUnits="userSpaceOnUse"
       y2="124"
       x2="626.1"
       y1="124"
       x1="577.03"
       id="lg16-2"
       xlink:href="#WhiteTransparent-1" />
    <linearGradient
       gradientTransform="matrix(0.3, 0.3, -0.09, 0.09, 78.84, -44.8)"
       gradientUnits="userSpaceOnUse"
       y2="368.27"
       x2="146.15"
       y1="288.57"
       x1="146.15"
       id="lg12-3"
       xlink:href="#WhiteTransparent-1" />
    <linearGradient
       gradientTransform="matrix(0.33, 0.33, -0.0944, 0.0944, 9.03, -48.1)"
       gradientUnits="userSpaceOnUse"
       y2="-1.72"
       x2="258.96"
       y1="62.74"
       x1="258.96"
       id="lg09-9"
       xlink:href="#WhiteTransparent-1" />
    <linearGradient
       spreadMethod="pad"
       gradientTransform="matrix(0.0998, 0.0998, -0.28, 0.28, 78.84, -44.8)"
       gradientUnits="userSpaceOnUse"
       y2="286.56"
       x2="419.88"
       y1="286.56"
       x1="543.1"
       id="lg05-7"
       xlink:href="#BlackTransparent-2" />
    <linearGradient
       gradientTransform="matrix(0.0807, 0.0775, -0.35, 0.36, 77.14, -45.89)"
       gradientUnits="userSpaceOnUse"
       y2="254.83"
       x2="615.59"
       y1="254.36"
       x1="512.7"
       id="lg02-4"
       xlink:href="#WhiteTransparent-1" />
    <linearGradient
       gradientTransform="matrix(0.1, 0.1, -0.22, 0.2, 75.6, -33.53)"
       gradientUnits="userSpaceOnUse"
       y2="118.3"
       x2="638.3"
       y1="69.99"
       x1="637.03"
       id="lg1999-6"
       xlink:href="#WhiteTransparent-1" />
    <linearGradient
       id="BlackTransparent-2">
      <stop
         id="stop11"
         offset="0"
         style="stop-color: black; stop-opacity: 1;" />
      <stop
         id="stop13"
         offset="1"
         style="stop-color: black; stop-opacity: 0;" />
    </linearGradient>
    <linearGradient
       id="WhiteTransparent-1">
      <stop
         id="stop6"
         offset="0"
         style="stop-color: white; stop-opacity: 1;" />
      <stop
         id="stop8"
         offset="1"
         style="stop-color: white; stop-opacity: 0;" />
    </linearGradient>
    <linearGradient
       id="linearGradient4719"
       inkscape:collect="always">
      <stop
         id="stop4721"
         offset="0"
         style="stop-color: white; stop-opacity: 0;" />
      <stop
         id="stop4723"
         offset="1"
         style="stop-color: white; stop-opacity: 0;" />
    </linearGradient>
    <linearGradient
       id="linearGradient6497"
       inkscape:collect="always">
      <stop
         id="stop6499"
         offset="0"
         style="stop-color: white; stop-opacity: 1;" />
      <stop
         id="stop6501"
         offset="1"
         style="stop-color: white; stop-opacity: 0;" />
    </linearGradient>
    <linearGradient
       id="linearGradient10942"
       inkscape:collect="always">
      <stop
         id="stop10944"
         offset="0"
         style="stop-color: black; stop-opacity: 1;" />
      <stop
         id="stop10946"
         offset="1"
         style="stop-color: black; stop-opacity: 0;" />
    </linearGradient>
    <inkscape:perspective
       id="perspective4126"
       inkscape:persp3d-origin="64 : 42.666667 : 1"
       inkscape:vp_z="128 : 64 : 1"
       inkscape:vp_y="0 : 1000 : 0"
       inkscape:vp_x="0 : 64 : 1"
       sodipodi:type="inkscape:persp3d" />
  </defs>
  <sodipodi:namedview
     id="base"
     pagecolor="#ffffff"
     bordercolor="#666666"
     borderopacity="1.0"
     inkscape:pageopacity="0.0"
     inkscape:pageshadow="2"
     inkscape:zoom="1.1878788"
     inkscape:cx="181.65276"
     inkscape:cy="783.69825"
     inkscape:document-units="px"
     inkscape:current-layer="layer1"
     showgrid="false"
     inkscape:window-width="1157"
     inkscape:window-height="841"
     inkscape:window-x="6"
     inkscape:window-y="94"
     inkscape:window-maximized="0" />
  <metadata
     id="metadata7">
    <rdf:RDF>
      <cc:Work
         rdf:about="">
        <dc:format>image/svg+xml</dc:format>
        <dc:type
           rdf:resource="http://purl.org/dc/dcmitype/StillImage" />
        <dc:title></dc:title>
      </cc:Work>
    </rdf:RDF>
  </metadata>
  <g
     inkscape:label="Layer 1"
     inkscape:groupmode="layer"
     id="layer1"
     transform="translate(0,-62.36218)">
    <rect
       style="fill:#ffffff;fill-opacity:1;stroke:none"
       id="rect3887"
       width="269.38812"
       height="122.9081"
       x="65.663261"
       y="49.668369"
       transform="translate(0,62.36218)"
       inkscape:export-filename="/home/administrator/workspace/message-builder/src/site/resources/images/mbt.png"
       inkscape:export-xdpi="73.225456"
       inkscape:export-ydpi="73.225456" />
    <g
       id="g3920"
       transform="matrix(0.98239508,0.18681516,-0.18681516,0.98239508,61.489149,-8.2964779)"
       inkscape:export-filename="/home/administrator/workspace/message-builder/src/site/resources/images/mbt.png"
       inkscape:export-xdpi="73.225456"
       inkscape:export-ydpi="73.225456">
      <use
         transform="matrix(0.9120917,-0.40998624,0.40998624,0.9120917,58.300374,121.17521)"
         height="1"
         width="1"
         y="0"
         x="0"
         style="opacity:0.25;stroke:#000000;stroke-width:8;stroke-linejoin:round"
         xlink:href="#outline1"
         class="outline-big"
         id="use2983" />
      <use
         transform="matrix(0.9120917,-0.40998624,0.40998624,0.9120917,58.300374,121.17521)"
         height="1"
         width="1"
         y="0"
         x="0"
         style="opacity:0.5;stroke:#000000;stroke-width:4;stroke-linejoin:round"
         xlink:href="#outline1"
         class="outline-small"
         id="use2985" />
      <use
         transform="matrix(0.9120917,-0.40998624,0.40998624,0.9120917,58.300374,121.17521)"
         height="1"
         width="1"
         y="0"
         x="0"
         style="fill:#888a85"
         xlink:href="#outline1"
         class="aluminium4"
         id="use2987" />
      <use
         transform="matrix(0.9120917,-0.40998624,0.40998624,0.9120917,58.300374,121.17521)"
         height="1"
         width="1"
         y="0"
         x="0"
         class="stroke-highlight"
         xlink:href="#outline1"
         clip-path="url(#clipoutline1)"
         style="fill:none;stroke:#ffffff;stroke-width:4;stroke-linejoin:miter;stroke-opacity:0.2"
         id="use2989" />
      <path
         class="high-specularity"
         style="opacity:0.75;fill:url(#linearGradient3928)"
         d="m 86.805353,125.24646 17.753247,6.68947 1.75548,12.02761 -8.646753,7.47188 -18.008524,-6.96942 -2.454627,6.08093 21.126827,12.3653 15.541187,-11.5248 84.21242,34.90227 c 10.24358,4.49546 17.32959,-10.71701 5.40486,-15.14751 l -86.88906,-30.12491 -3.51879,-17.24316 -23.957461,-4.61332 -2.318806,6.08566 z m 111.191687,52.31155 c 0.83852,-2.20787 3.40301,-3.72242 5.62318,-2.85654 2.23524,0.82622 4.68924,2.96843 3.80716,6.88431 -1.00421,2.64416 -3.95571,3.88314 -6.66546,2.733 -2.22109,-0.84354 -3.61846,-4.51323 -2.76488,-6.76077 z"
         id="path2991" />
      <path
         class="specularity"
         style="opacity:0.5;fill:url(#linearGradient3930)"
         d="m 86.694981,125.318 31.102969,11.94859 -2.74958,-13.97087 -26.061025,-4.07342 -2.292364,6.0957 z"
         id="path2993" />
    </g>
    <path
       class="low-shade"
       style="opacity:0.5;fill:url(#linearGradient3092)"
       d="m 524.70073,186.57725 4.631,4.28 c 0.38,4.32 -0.73,5.62 -7.83,11.64 l -8.6,-9.22 11.79,-6.7 0,0 0.009,0 z"
       id="path2995" />
    <g
       transform="matrix(-0.72153483,-0.69237814,0.69237814,-0.72153483,184.76207,301.69944)"
       id="g12725"
       inkscape:export-filename="/home/administrator/workspace/message-builder/src/site/resources/images/mbt.png"
       inkscape:export-xdpi="73.225456"
       inkscape:export-ydpi="73.225456">
      <path
         style="opacity:0.25;fill:url(#linearGradient12739);fill-opacity:1;fill-rule:nonzero;stroke:#000000;stroke-width:1;stroke-linecap:round;stroke-linejoin:round;stroke-miterlimit:4;stroke-opacity:1;stroke-dasharray:none;stroke-dashoffset:0"
         d="M 101.2272,29.195113 93.75374,21.600436 C 93.09242,20.983979 93.0563,19.9553 93.67276,19.293981 l 12.34791,-5.554771 3.61098,3.532514 -6.09799,11.842409 c -0.61646,0.661319 -1.64514,0.697436 -2.30646,0.08098 z"
         id="path11835"
         sodipodi:nodetypes="ccccccc" />
      <path
         style="opacity:0.25;fill:url(#linearGradient12741);fill-opacity:1;fill-rule:nonzero;stroke:#000000;stroke-width:0pt;stroke-linecap:round;stroke-linejoin:round;stroke-miterlimit:4;stroke-opacity:1;stroke-dasharray:none;stroke-dashoffset:0"
         d="m 101.38755,29.450331 -8.1525,-8.188842 c -0.66132,-0.616457 -0.69744,-1.645136 -0.08098,-2.306455 l 12.51767,-5.554771 4.12026,3.787156 -6.09799,12.181932 c -0.61646,0.661319 -1.64514,0.697436 -2.30646,0.08098 z"
         id="path10055"
         sodipodi:nodetypes="ccccccc" />
      <path
         style="opacity:0.25;fill:#000000;fill-opacity:1;fill-rule:nonzero;stroke:#000000;stroke-width:2.0999999;stroke-linecap:round;stroke-linejoin:round;stroke-miterlimit:4;stroke-opacity:1;stroke-dashoffset:0"
         d="M 100.94709,30.026056 92.914619,21.897233 C 92.2533,21.280776 92.217183,20.252097 92.83364,19.590778 l 13.23791,-5.854869 3.64009,3.487058 -6.45809,12.722109 c -0.61646,0.661319 -1.64514,0.697436 -2.30646,0.08098 z"
         id="rect6505"
         sodipodi:nodetypes="ccccccc" />
      <path
         d="M 94.327823,25.30956 55.35318,63.573967 c -1.39,-1.39 -5.440315,-4.721102 -6.860315,-3.361102 l -41.03,39.38 c -3.74,3.589995 -0.8,6.639995 0.78,8.249995 l 7.36,7.36 c 1.61,1.60001 5.86,3.76 8.88,0.56 l 38.72,-40.809995 c 1.35,-1.42 1.36,-4.47 0,-5.87 0,0 -2.990984,-1.280413 -3.000984,-1.280413 L 97.956093,28.55775 c 2.525537,-2.070605 -1.941439,-4.956394 -3.62827,-3.24819 z"
         id="path9163"
         style="fill:#ffffff;fill-opacity:1;stroke:#ffffff;stroke-width:8;stroke-linejoin:round;stroke-opacity:1"
         sodipodi:nodetypes="cccccccccccc" />
      <path
         d="M 94.327823,25.30956 55.35318,63.573967 c -1.39,-1.39 -5.440315,-4.721102 -6.860315,-3.361102 l -41.03,39.38 c -3.74,3.589995 -0.8,6.639995 0.78,8.249995 l 7.36,7.36 c 1.61,1.60001 5.86,3.76 8.88,0.56 l 38.72,-40.809995 c 1.35,-1.42 1.36,-4.47 0,-5.87 0,0 -2.990984,-1.280413 -3.000984,-1.280413 L 97.956093,28.55775 c 2.525537,-2.070605 -1.941439,-4.956394 -3.62827,-3.24819 z"
         id="use50"
         style="opacity:0.25;stroke:#000000;stroke-width:8;stroke-linejoin:round"
         sodipodi:nodetypes="cccccccccccc" />
      <path
         d="M 93.358977,25.303527 55.593258,62.613652 c -1.39,-1.39 -5.680393,-3.760787 -7.100393,-2.400787 l -41.03,39.38 c -3.74,3.589995 -0.8,6.639995 0.78,8.249995 l 7.36,7.36 c 1.61,1.60001 5.86,3.76 8.88,0.56 l 38.72,-40.809995 c 1.35,-1.42 1.36,-4.47 0,-5.87 0,0 -1.550512,-2.660866 -1.560512,-2.660866 L 97.496532,29.687826 c 1.442936,-2.472488 0.05159,-6.799288 -4.137555,-4.384299 z"
         id="use52"
         style="opacity:0.5;stroke:#000000;stroke-width:4;stroke-linejoin:round"
         sodipodi:nodetypes="cccccccccccc" />
      <path
         class="specularity"
         style="opacity:0.5;fill:url(#linearGradient12743)"
         d="m 86.892865,39.722865 -29.45,29.44 2.82,2.83 29.45,-29.44 -2.82,-2.83 z"
         id="path56" />
      <path
         style="fill:#a43434;fill-opacity:1"
         d="m 54.392865,60.212865 c -1.39,-1.39 -4.48,-1.36 -5.9,0 l -41.03,39.38 c -3.74,3.589995 -0.82,6.639995 0.78,8.249995 l 7.36,7.36 c 1.61,1.60001 5.86,3.76 8.88,0.56 l 38.72,-40.809995 c 1.35,-1.42 1.36,-4.47 0,-5.87 0,0 0.01,-0.02 0,-0.02 l -8.81,-8.85 z"
         id="path66" />
      <path
         class="low-shade"
         style="opacity:0.5;fill:url(#linearGradient12745)"
         d="m 8.232865,107.83287 7.36,7.36999 c 1.61,1.60001 5.73,3.89 8.75,0.71001 l 38.87,-40.970005 c 1.35,-1.43 1.39,-4.5 0,-5.88 l -8.83,-8.84 -46.15,47.610005 z"
         id="path68" />
      <path
         class="specularity"
         style="opacity:0.5;fill:url(#linearGradient12747)"
         d="m 49.162865,63.662865 -38.88,38.039995 c -1.62,1.56 -1.07,3.75 0.1,4.89 l 4.13,3.97 42.37,-43.599995 -3.92,-3.68 c -0.84,-0.8 -2.8,-0.57 -3.8,0.38 z"
         id="path70" />
      <path
         d="M 93.00739,24.949441 54.993062,61.533298 c -1.39,-1.39 -5.080197,-3.040551 -6.500197,-1.680551 l -41.03,39.740118 c -3.74,3.589995 -0.8,6.639995 0.78,8.249995 l 7.36,7.36 c 1.61,1.60001 5.86,3.76 8.88,0.56 l 38.72,-40.809995 c 1.35,-1.42 1.36,-4.47 0,-5.87 0,0 -1.430472,-1.820591 -1.440472,-1.820591 l 36.913931,-37.50413 c 2.493556,-4.9051 -3.090808,-8.731476 -5.668934,-4.808703 z"
         id="use72"
         style="fill:none;stroke:#ffffff;stroke-width:1.89999998;stroke-linejoin:round;stroke-miterlimit:4;stroke-opacity:0.2;stroke-dasharray:none"
         sodipodi:nodetypes="cccccccccccc" />
      <rect
         style="fill:url(#linearGradient12749);fill-opacity:1;fill-rule:nonzero;stroke:url(#linearGradient12751);stroke-width:0pt;stroke-linecap:round;stroke-linejoin:round;stroke-miterlimit:4;stroke-opacity:1;stroke-dasharray:none;stroke-dashoffset:0"
         id="rect3832"
         width="54.153233"
         height="4.2588229"
         x="-2.7803462"
         y="82.280632"
         transform="matrix(0.713439,-0.700718,0.700718,0.713439,0,0)"
         ry="1.6319132"
         inkscape:transform-center-x="18.750711"
         inkscape:transform-center-y="18.895805" />
    </g>
    <g
       id="hammer"
       transform="matrix(0.89710868,0.44180994,-0.44180994,0.89710868,233.96799,85.039706)"
       inkscape:export-filename="/home/administrator/workspace/message-builder/src/site/resources/images/mbt.png"
       inkscape:export-xdpi="73.225456"
       inkscape:export-ydpi="73.225456">
      <use
         height="1"
         width="1"
         y="0"
         x="0"
         style="opacity:0.25;stroke:#000000;stroke-width:8;stroke-linejoin:round"
         xlink:href="#outline2"
         class="outline-big"
         id="use2998" />
      <use
         height="1"
         width="1"
         y="0"
         x="0"
         style="opacity:0.5;stroke:#000000;stroke-width:4;stroke-linejoin:round"
         xlink:href="#outline2"
         class="outline-small stroke-aluminium5"
         id="use3000" />
      <path
         style="fill:#d3d7cf"
         class="aluminium2"
         d="M 82.92,35.75 53.47,65.2 62.3,74.03 91.75,44.59 82.92,35.75 z"
         id="path3002" />
      <path
         class="specularity"
         style="opacity:0.5;fill:url(#linearGradient3101)"
         d="M 88.93,41.76 59.48,71.2 62.3,74.03 91.75,44.59 88.93,41.76 z"
         id="path3004" />
      <path
         style="fill:url(#linearGradient3103)"
         d="M 86.46,37.04 57.13,66.37 60.92,70.16 89.5,40.08 86.46,37.04 z"
         id="path3006" />
      <path
         style="fill:#2e3436"
         class="aluminium6"
         d="m 55.8,12 0.76,0.16 c 8.84,-2.94 28.68,8.64 24.26,18.96 -1.12,1.62 -0.93,4.5 0.42,6.31 l 8.91,8.77 c 2.63,2.37 5.11,2.57 7.47,1.93 4.55,-1.23 7.08,3.2 9.81,6.46 l -1.23,1.21 c -1.82,1.84 -1.65,4.94 0.39,6.98 2.04,2.04 5.15,2.21 6.97,0.39 l 8.14,-8.13 c 1.82,-1.84 1.65,-4.94 -0.4,-6.97 -1.84,-1.85 -4.51,-2.09 -6.37,-0.77 -5.58,-6.26 -2.65,-7.2 -10.01,-15.35 L 91.13,17.86 C 81.2,8.12 68.3,8.13 55.8,12 z"
         id="path3008" />
      <path
         class="specularity"
         style="opacity:0.5;fill:url(#linearGradient3105)"
         d="m 114.93,47.3 c -5.58,-6.26 -2.65,-7.2 -10.01,-15.35 L 91.13,17.86 C 85.44,12.28 78.77,9.9 71.77,9.6 L 112.9,51.13 115.87535,48.4 114.93,47.3 z"
         id="path3010" />
      <path
         class="low-specularity"
         style="opacity:0.5;fill:url(#linearGradient3107)"
         d="m 81.45,28 c 0.05,1 -0.179343,2 -0.65,3.12 -1.1,1.62 -0.91,4.5 0.44,6.31 l 8.91,8.77 c 2.63,2.37 5.11,2.57 7.47,1.93 1.08,-0.33 2.06,-0.27 2.98,0 C 103.4,48.9 81.44,27.58 81.45,27.9 l 0,0.1 z"
         id="path3012" />
      <path
         style="fill:#3465a4"
         d="m 56.43,62.25 c -1.39,-1.39 -4.48,-1.36 -5.9,0 L 9.5,101.63 c -3.74,3.59 -0.82,6.64 0.78,8.25 l 7.36,7.36 c 1.61,1.6 5.86,3.76 8.88,0.56 L 65.24,76.99 c 1.35,-1.42 1.36,-4.47 0,-5.87 0,0 0.01,-0.02 0,-0.02 l -8.81,-8.85 z"
         id="path3014" />
      <path
         class="low-shade"
         style="opacity:0.5;fill:url(#linearGradient3109)"
         d="m 10.27,109.87 7.36,7.37 c 1.61,1.6 5.73,3.89 8.75,0.71 L 65.25,76.98 c 1.35,-1.43 1.39,-4.5 0,-5.88 l -8.83,-8.84 -46.15,47.61 z"
         id="path3016" />
      <path
         class="specularity"
         style="opacity:0.5;fill:url(#linearGradient3111)"
         d="m 51.2,65.7 -38.88,38.04 c -1.62,1.56 -1.07,3.75 0.1,4.89 L 16.55,112.6 58.92,69 55,65.32 c -0.84,-0.8 -2.8,-0.57 -3.8,0.38 z"
         id="path3018" />
      <use
         height="1"
         width="1"
         y="0"
         x="0"
         style="fill:none;stroke:#ffffff;stroke-width:4;stroke-linejoin:round;stroke-opacity:0.2"
         class="stroke-highlight"
         xlink:href="#outline2"
         clip-path="url(#clipoutline2)"
         id="use3020" />
      <path
         style="fill:url(#linearGradient3113)"
         d="m 120.45,49.26 c 1.51,1.44 1.8,3.44 -0.28,5.36 l -3.87,3.63 c -2.08,1.95 -7.52,-3.25 -5.45,-5.19 l 3.88,-3.63 c 2.07,-1.95 4.21,-1.61 5.72,-0.17 z"
         id="path3022" />
    </g>
    <text
       xml:space="preserve"
       style="font-size:56px;font-style:normal;font-variant:normal;font-weight:bold;font-stretch:normal;text-align:start;line-height:125%;writing-mode:lr-tb;text-anchor:start;fill:url(#linearGradient3606);fill-opacity:1;stroke:#000000;stroke-width:2;stroke-miterlimit:4;stroke-opacity:1;stroke-dasharray:none;font-family:Waree;-inkscape-font-specification:Waree Bold"
       x="69.346939"
       y="193.68871"
       id="text2816"
       sodipodi:linespacing="125%"
       inkscape:export-filename="/home/administrator/workspace/message-builder/src/site/resources/images/mbt.png"
       inkscape:export-xdpi="73.225456"
       inkscape:export-ydpi="73.225456"><tspan
         sodipodi:role="line"
         id="tspan2818"
         x="69.346939"
         y="193.68871"
         style="font-size:56px;font-style:normal;font-variant:normal;font-weight:bold;font-stretch:normal;text-align:start;line-height:125%;writing-mode:lr-tb;text-anchor:start;fill:url(#linearGradient3606);fill-opacity:1;stroke:#000000;stroke-width:2;stroke-miterlimit:4;stroke-opacity:1;stroke-dasharray:none;font-family:Waree;-inkscape-font-specification:Waree Bold">&lt;MBT&gt;</tspan></text>
  </g>
  <style
     id="style2979"
     type="text/css">
	/* Specular Highlighting */
		.low-specularity	{opacity:0.25;}
		.specularity		{opacity:0.5;}
		.high-specularity	{opacity:0.75;}
		.full-specularity	{opacity:1;}

	/* Shading */
		.low-shade	{opacity:0.25;}
		.shade		{opacity:0.5;}
		.high-shade	{opacity:0.75;}
		.full-shade	{opacity:1;}

	/* Tango palette fill/stroke */
		.black		{fill:#000;}
		.aluminium1	{fill:#eeeeec;}
		.aluminium2	{fill:#d3d7cf;}
		.aluminium6	{fill:#2e3436;}
		.chocolate3	{fill:#8f5902;}
		.chocolate2	{fill:#c17d11;}
		.aluminium4	{fill:#888a85;}

	/* Shadows: Back-Shadows &amp; Base Shadows */
		.base-shadow	{opacity:0.4;}
		.outline-big	{stroke:black;stroke-width:8;opacity:0.25;stroke-linejoin:round;}
		.outline-small	{stroke:black;stroke-width:4;opacity:0.5;stroke-linejoin:round;}
		.stroke-highlight	{fill:none;stroke:white;stroke-opacity:0.2;stroke-width:4;stroke-linejoin:round;}
	</style>
  <style
     id="style31"
     type="text/css">
	/* Specular Highlighting */
		.low-specularity	{opacity:0.25;}
		.specularity		{opacity:0.5;}
		.high-specularity	{opacity:0.75;}
		.full-specularity	{opacity:1;}

	/* Shading */
		.low-shade	{opacity:0.25;}
		.shade		{opacity:0.5;}
		.high-shade	{opacity:0.75;}
		.full-shade	{opacity:1;}

	/* Tango palette fill/stroke */
		.black		{fill:#000;}
		.aluminium1	{fill:#eeeeec;}
		.aluminium2	{fill:#d3d7cf;}
		.aluminium6	{fill:#2e3436;}
		.chocolate3	{fill:#8f5902;}
		.chocolate2	{fill:#c17d11;}
		.aluminium4	{fill:#888a85;}

	/* Shadows: Back-Shadows &amp; Base Shadows */
		.base-shadow	{opacity:0.4;}
		.outline-big	{stroke:black;stroke-width:8;opacity:0.25;stroke-linejoin:round;}
		.outline-small	{stroke:black;stroke-width:4;opacity:0.5;stroke-linejoin:round;}
		.stroke-highlight	{fill:none;stroke:white;stroke-opacity:0.2;stroke-width:4;stroke-linejoin:round;}
	</style>
</svg>
